# xmcd
#
# Track frame offsets: 
#        150
#        17565
#        35486
#        55454
#        73311
#        94052
#        108727
#        128928
#        148519
#        164802
#
# Disc length: 2383 seconds
#
# Revision: 1
# Processed by: cddbd v1.5.2PL0 Copyright (c) Steve Scherf et al.
# Submitted via: ExactAudioCopy v1.0b3
#
DISCID=98094d0a
DTITLE=Wallace Coleman - Blues In The Wind
DYEAR=2010
DGENRE=Blues
TTITLE0=Blues In The Wind
TTITLE1=Uptown Blues
TTITLE2=Southbound Train
TTITLE3=Corrina, Corrina
TTITLE4=Robert Jr.
TTITLE5=Too Much Time On My Hands
TTITLE6=Sinking Sun
TTITLE7=Little Joint Way 'Cross Town
TTITLE8=Matchbox Blues
TTITLE9=Fields Of Gold
EXTD=
EXTT0=
EXTT1=
EXTT2=
EXTT3=
EXTT4=
EXTT5=
EXTT6=
EXTT7=
EXTT8=
EXTT9=
PLAYORDER=
